<mxfile host="65bd71144e">
    <diagram id="lkyWYgvxxezlejkIE3hl" name="Page-1">
        <mxGraphModel dx="1744" dy="659" grid="1" gridSize="10" guides="1" tooltips="1" connect="1" arrows="1" fold="1" page="1" pageScale="1" pageWidth="850" pageHeight="1100" math="0" shadow="0">
            <root>
                <mxCell id="0"/>
                <mxCell id="1" parent="0"/>
                <mxCell id="3" value="Kubernetes" style="text;html=1;strokeColor=none;fillColor=none;align=center;verticalAlign=middle;whiteSpace=wrap;rounded=0;" parent="1" vertex="1">
                    <mxGeometry x="160" y="210" width="60" height="30" as="geometry"/>
                </mxCell>
                <mxCell id="21" style="edgeStyle=orthogonalEdgeStyle;html=1;entryX=1;entryY=0.5;entryDx=0;entryDy=0;" parent="1" source="64" target="14" edge="1">
                    <mxGeometry relative="1" as="geometry">
                        <mxPoint x="490" y="150" as="sourcePoint"/>
                    </mxGeometry>
                </mxCell>
                <mxCell id="24" style="edgeStyle=orthogonalEdgeStyle;html=1;entryX=1;entryY=0.5;entryDx=0;entryDy=0;" parent="1" source="64" target="22" edge="1">
                    <mxGeometry relative="1" as="geometry">
                        <mxPoint x="720" y="490" as="targetPoint"/>
                        <mxPoint x="490" y="150" as="sourcePoint"/>
                    </mxGeometry>
                </mxCell>
                <mxCell id="29" style="edgeStyle=orthogonalEdgeStyle;html=1;entryX=1;entryY=0.5;entryDx=0;entryDy=0;" parent="1" source="64" target="25" edge="1">
                    <mxGeometry relative="1" as="geometry">
                        <mxPoint x="490" y="150" as="sourcePoint"/>
                    </mxGeometry>
                </mxCell>
                <mxCell id="7" value="" style="rounded=0;whiteSpace=wrap;html=1;fillColor=none;" parent="1" vertex="1">
                    <mxGeometry x="160" y="240" width="560" height="1080" as="geometry"/>
                </mxCell>
                <mxCell id="5" value="" style="rounded=0;whiteSpace=wrap;html=1;fillColor=default;" parent="1" vertex="1">
                    <mxGeometry x="240" y="280" width="200" height="200" as="geometry"/>
                </mxCell>
                <mxCell id="8" value="Frontend" style="text;html=1;strokeColor=none;fillColor=none;align=center;verticalAlign=middle;whiteSpace=wrap;rounded=0;" parent="1" vertex="1">
                    <mxGeometry x="240" y="250" width="60" height="30" as="geometry"/>
                </mxCell>
                <mxCell id="9" value="NGINX" style="rounded=1;whiteSpace=wrap;html=1;" parent="1" vertex="1">
                    <mxGeometry x="280" y="320" width="120" height="40" as="geometry"/>
                </mxCell>
                <mxCell id="10" value="11ty | Svelte" style="shape=process;whiteSpace=wrap;html=1;backgroundOutline=1;fillColor=default;" parent="1" vertex="1">
                    <mxGeometry x="280" y="400" width="120" height="40" as="geometry"/>
                </mxCell>
                <mxCell id="11" style="edgeStyle=orthogonalEdgeStyle;html=1;exitX=0;exitY=0.3333333333333333;exitDx=0;exitDy=0;exitPerimeter=0;entryX=1;entryY=0.5;entryDx=0;entryDy=0;" parent="1" source="64" target="9" edge="1">
                    <mxGeometry relative="1" as="geometry">
                        <mxPoint x="460" y="150" as="sourcePoint"/>
                    </mxGeometry>
                </mxCell>
                <mxCell id="13" value="Prometheus &amp;amp; Grafana &amp;amp; Loki" style="rounded=1;whiteSpace=wrap;html=1;" parent="1" vertex="1">
                    <mxGeometry x="520" y="600" width="120" height="40" as="geometry"/>
                </mxCell>
                <mxCell id="14" value="Plausible" style="rounded=1;whiteSpace=wrap;html=1;" parent="1" vertex="1">
                    <mxGeometry x="520" y="360" width="120" height="40" as="geometry"/>
                </mxCell>
                <mxCell id="15" value="Reverse Proxy" style="text;html=1;strokeColor=none;fillColor=none;align=center;verticalAlign=middle;whiteSpace=wrap;rounded=0;" parent="1" vertex="1">
                    <mxGeometry x="280" y="290" width="120" height="30" as="geometry"/>
                </mxCell>
                <mxCell id="17" value="Site Generator" style="text;html=1;strokeColor=none;fillColor=none;align=center;verticalAlign=middle;whiteSpace=wrap;rounded=0;" parent="1" vertex="1">
                    <mxGeometry x="280" y="370" width="120" height="30" as="geometry"/>
                </mxCell>
                <mxCell id="19" value="Frontend Analytics" style="text;html=1;strokeColor=none;fillColor=none;align=center;verticalAlign=middle;whiteSpace=wrap;rounded=0;" parent="1" vertex="1">
                    <mxGeometry x="520" y="330" width="120" height="30" as="geometry"/>
                </mxCell>
                <mxCell id="20" value="Backend Metrics" style="text;html=1;strokeColor=none;fillColor=none;align=center;verticalAlign=middle;whiteSpace=wrap;rounded=0;" parent="1" vertex="1">
                    <mxGeometry x="520" y="570" width="120" height="30" as="geometry"/>
                </mxCell>
                <mxCell id="22" value="Authelia?" style="rounded=1;whiteSpace=wrap;html=1;" parent="1" vertex="1">
                    <mxGeometry x="520" y="440" width="120" height="40" as="geometry"/>
                </mxCell>
                <mxCell id="23" value="Auth" style="text;html=1;strokeColor=none;fillColor=none;align=center;verticalAlign=middle;whiteSpace=wrap;rounded=0;" parent="1" vertex="1">
                    <mxGeometry x="520" y="410" width="120" height="30" as="geometry"/>
                </mxCell>
                <mxCell id="37" style="edgeStyle=orthogonalEdgeStyle;html=1;exitX=0;exitY=0.5;exitDx=0;exitDy=0;entryX=1;entryY=0.25;entryDx=0;entryDy=0;" parent="1" source="25" target="33" edge="1">
                    <mxGeometry relative="1" as="geometry"/>
                </mxCell>
                <mxCell id="25" value="NGINX" style="rounded=1;whiteSpace=wrap;html=1;" parent="1" vertex="1">
                    <mxGeometry x="520" y="520" width="120" height="40" as="geometry"/>
                </mxCell>
                <mxCell id="26" value="API Gateway &amp;amp; Ingress" style="text;html=1;strokeColor=none;fillColor=none;align=center;verticalAlign=middle;whiteSpace=wrap;rounded=0;" parent="1" vertex="1">
                    <mxGeometry x="520" y="490" width="120" height="30" as="geometry"/>
                </mxCell>
                <mxCell id="31" value="" style="rounded=0;whiteSpace=wrap;html=1;fillColor=default;" parent="1" vertex="1">
                    <mxGeometry x="240" y="560" width="200" height="200" as="geometry"/>
                </mxCell>
                <mxCell id="32" value="Backend" style="text;html=1;strokeColor=none;fillColor=none;align=center;verticalAlign=middle;whiteSpace=wrap;rounded=0;" parent="1" vertex="1">
                    <mxGeometry x="240" y="530" width="60" height="30" as="geometry"/>
                </mxCell>
                <mxCell id="38" style="edgeStyle=orthogonalEdgeStyle;html=1;exitX=1;exitY=0.75;exitDx=0;exitDy=0;entryX=0;entryY=0.5;entryDx=0;entryDy=0;" parent="1" source="33" target="13" edge="1">
                    <mxGeometry relative="1" as="geometry"/>
                </mxCell>
                <mxCell id="41" style="edgeStyle=orthogonalEdgeStyle;html=1;exitX=0;exitY=0.5;exitDx=0;exitDy=0;entryX=0;entryY=0.5;entryDx=0;entryDy=0;" parent="1" source="33" target="39" edge="1">
                    <mxGeometry relative="1" as="geometry"/>
                </mxCell>
                <mxCell id="59" style="edgeStyle=orthogonalEdgeStyle;html=1;exitX=1;exitY=0.75;exitDx=0;exitDy=0;entryX=0;entryY=0.5;entryDx=0;entryDy=0;" parent="1" source="33" target="57" edge="1">
                    <mxGeometry relative="1" as="geometry"/>
                </mxCell>
                <mxCell id="33" value="Golang" style="shape=process;whiteSpace=wrap;html=1;backgroundOutline=1;fillColor=default;" parent="1" vertex="1">
                    <mxGeometry x="280" y="600" width="120" height="40" as="geometry"/>
                </mxCell>
                <mxCell id="34" value="APIs &amp;amp; Services" style="text;html=1;strokeColor=none;fillColor=none;align=center;verticalAlign=middle;whiteSpace=wrap;rounded=0;" parent="1" vertex="1">
                    <mxGeometry x="280" y="570" width="120" height="30" as="geometry"/>
                </mxCell>
                <mxCell id="35" style="edgeStyle=orthogonalEdgeStyle;html=1;exitX=0;exitY=0.5;exitDx=0;exitDy=0;entryX=1;entryY=0.25;entryDx=0;entryDy=0;" parent="1" source="22" target="33" edge="1">
                    <mxGeometry relative="1" as="geometry"/>
                </mxCell>
                <mxCell id="39" value="Filesystem | Sqlite | Postgres | Vallkey" style="rounded=1;whiteSpace=wrap;html=1;" parent="1" vertex="1">
                    <mxGeometry x="280" y="690" width="120" height="40" as="geometry"/>
                </mxCell>
                <mxCell id="40" value="Databases" style="text;html=1;strokeColor=none;fillColor=none;align=center;verticalAlign=middle;whiteSpace=wrap;rounded=0;" parent="1" vertex="1">
                    <mxGeometry x="280" y="660" width="120" height="30" as="geometry"/>
                </mxCell>
                <mxCell id="42" value="Docker&lt;br&gt;Makefile | Taskfile" style="text;html=1;strokeColor=none;fillColor=none;align=left;verticalAlign=middle;whiteSpace=wrap;rounded=0;" parent="1" vertex="1">
                    <mxGeometry x="40" y="535" width="100" height="30" as="geometry"/>
                </mxCell>
                <mxCell id="45" value="" style="rounded=0;whiteSpace=wrap;html=1;fillColor=default;" parent="1" vertex="1">
                    <mxGeometry x="240" y="840" width="200" height="440" as="geometry"/>
                </mxCell>
                <mxCell id="46" value="Artifacts" style="text;html=1;strokeColor=none;fillColor=none;align=center;verticalAlign=middle;whiteSpace=wrap;rounded=0;" parent="1" vertex="1">
                    <mxGeometry x="240" y="810" width="60" height="30" as="geometry"/>
                </mxCell>
                <mxCell id="47" value="Git in Gitea" style="rounded=1;whiteSpace=wrap;html=1;" parent="1" vertex="1">
                    <mxGeometry x="280" y="880" width="120" height="40" as="geometry"/>
                </mxCell>
                <mxCell id="48" value="Source Control" style="text;html=1;strokeColor=none;fillColor=none;align=center;verticalAlign=middle;whiteSpace=wrap;rounded=0;" parent="1" vertex="1">
                    <mxGeometry x="280" y="850" width="120" height="30" as="geometry"/>
                </mxCell>
                <mxCell id="49" value="Gitea" style="rounded=1;whiteSpace=wrap;html=1;" parent="1" vertex="1">
                    <mxGeometry x="280" y="960" width="120" height="40" as="geometry"/>
                </mxCell>
                <mxCell id="50" value="Container Registry" style="text;html=1;strokeColor=none;fillColor=none;align=center;verticalAlign=middle;whiteSpace=wrap;rounded=0;" parent="1" vertex="1">
                    <mxGeometry x="280" y="930" width="120" height="30" as="geometry"/>
                </mxCell>
                <mxCell id="51" value="Gitea" style="rounded=1;whiteSpace=wrap;html=1;" parent="1" vertex="1">
                    <mxGeometry x="280" y="1040" width="120" height="40" as="geometry"/>
                </mxCell>
                <mxCell id="52" value="Helm Chart Repo" style="text;html=1;strokeColor=none;fillColor=none;align=center;verticalAlign=middle;whiteSpace=wrap;rounded=0;" parent="1" vertex="1">
                    <mxGeometry x="280" y="1010" width="120" height="30" as="geometry"/>
                </mxCell>
                <mxCell id="53" value="Gitea" style="rounded=1;whiteSpace=wrap;html=1;" parent="1" vertex="1">
                    <mxGeometry x="280" y="1120" width="120" height="40" as="geometry"/>
                </mxCell>
                <mxCell id="54" value="Container Registry" style="text;html=1;strokeColor=none;fillColor=none;align=center;verticalAlign=middle;whiteSpace=wrap;rounded=0;" parent="1" vertex="1">
                    <mxGeometry x="280" y="1090" width="120" height="30" as="geometry"/>
                </mxCell>
                <mxCell id="57" value="ConfigMap" style="rounded=1;whiteSpace=wrap;html=1;" parent="1" vertex="1">
                    <mxGeometry x="520" y="680" width="120" height="40" as="geometry"/>
                </mxCell>
                <mxCell id="58" value="Configuration" style="text;html=1;strokeColor=none;fillColor=none;align=center;verticalAlign=middle;whiteSpace=wrap;rounded=0;" parent="1" vertex="1">
                    <mxGeometry x="520" y="650" width="120" height="30" as="geometry"/>
                </mxCell>
                <mxCell id="60" value="Gitea" style="rounded=1;whiteSpace=wrap;html=1;" parent="1" vertex="1">
                    <mxGeometry x="280" y="1200" width="120" height="40" as="geometry"/>
                </mxCell>
                <mxCell id="61" value="Pipelines" style="text;html=1;strokeColor=none;fillColor=none;align=center;verticalAlign=middle;whiteSpace=wrap;rounded=0;" parent="1" vertex="1">
                    <mxGeometry x="280" y="1170" width="120" height="30" as="geometry"/>
                </mxCell>
                <mxCell id="62" value="Prometheus" style="rounded=1;whiteSpace=wrap;html=1;" parent="1" vertex="1">
                    <mxGeometry x="520" y="760" width="120" height="40" as="geometry"/>
                </mxCell>
                <mxCell id="63" value="Alerts" style="text;html=1;strokeColor=none;fillColor=none;align=center;verticalAlign=middle;whiteSpace=wrap;rounded=0;" parent="1" vertex="1">
                    <mxGeometry x="520" y="730" width="120" height="30" as="geometry"/>
                </mxCell>
                <mxCell id="64" value="" style="sketch=0;pointerEvents=1;shadow=0;dashed=0;html=1;strokeColor=none;fillColor=#505050;labelPosition=center;verticalLabelPosition=bottom;verticalAlign=top;outlineConnect=0;align=center;shape=mxgraph.office.devices.mac_client;" parent="1" vertex="1">
                    <mxGeometry x="460" y="150" width="58" height="48" as="geometry"/>
                </mxCell>
                <mxCell id="67" style="edgeStyle=orthogonalEdgeStyle;html=1;" parent="1" source="66" target="64" edge="1">
                    <mxGeometry relative="1" as="geometry"/>
                </mxCell>
                <mxCell id="66" value="" style="shape=umlActor;verticalLabelPosition=bottom;verticalAlign=top;html=1;outlineConnect=0;" parent="1" vertex="1">
                    <mxGeometry x="474" y="40" width="30" height="60" as="geometry"/>
                </mxCell>
            </root>
        </mxGraphModel>
    </diagram>
</mxfile>